<!-- Simple SVG icon that can be used as placeholder -->
<svg width="128" height="128" viewBox="0 0 128 128" xmlns="http://www.w3.org/2000/svg">
  <rect width="128" height="128" fill="#F8FAFC"/>
  <g transform="translate(24, 24)">
    <!-- Bookshelf -->
    <rect x="10" y="60" width="60" height="4" fill="#4F46E5" rx="2"/>
    <rect x="10" y="40" width="60" height="4" fill="#4F46E5" rx="2"/>
    <rect x="10" y="20" width="60" height="4" fill="#4F46E5" rx="2"/>
    
    <!-- Books on shelves -->
    <rect x="15" y="24" width="8" height="16" fill="#4F46E5" opacity="0.6"/>
    <rect x="25" y="24" width="10" height="16" fill="#4F46E5" opacity="0.7"/>
    <rect x="37" y="24" width="7" height="16" fill="#4F46E5" opacity="0.5"/>
    
    <rect x="15" y="44" width="10" height="16" fill="#4F46E5" opacity="0.7"/>
    <rect x="27" y="44" width="8" height="16" fill="#4F46E5" opacity="0.6"/>
    <rect x="37" y="44" width="9" height="16" fill="#4F46E5" opacity="0.5"/>
    
    <!-- Neural connections (synapses) -->
    <circle cx="50" cy="15" r="3" fill="#4F46E5"/>
    <circle cx="65" cy="25" r="3" fill="#4F46E5"/>
    <circle cx="60" cy="50" r="3" fill="#4F46E5"/>
    <line x1="50" y1="15" x2="65" y2="25" stroke="#4F46E5" stroke-width="1.5" opacity="0.4"/>
    <line x1="65" y1="25" x2="60" y2="50" stroke="#4F46E5" stroke-width="1.5" opacity="0.4"/>
  </g>
</svg>
